<svg class="svg-icon" style="width: 1em; height: 1em;vertical-align: middle;fill: currentColor;overflow: hidden;" viewBox="0 0 1024 1024" version="1.1" xmlns="http://www.w3.org/2000/svg"><path d="M250.6 578.6c34.6 0 67.4 13.6 92.2 38.4 24.8 24.8 38.4 57.6 38.4 92.2s-13.6 67.4-38.4 92.2c-24.8 24.8-57.6 38.4-92.2 38.4s-67.4-13.6-92.2-38.4C133.6 776.8 120 744 120 709.4s13.6-67.4 38.4-92.2c24.8-24.8 57.6-38.6 92.2-38.6m0-56c-102.6 0-186.6 84-186.6 186.6C64 812 148 896 250.6 896s186.6-84 186.6-186.6c0.2-102.8-83.8-186.8-186.6-186.8z m389-267c35.6 0 64-28.4 64-64S675.6 128 640 128s-64.4 28-64.4 63.6c0 35.4 28.6 64 64 64z m133.8 323c34.6 0 67.4 13.6 92.2 38.4 24.8 24.8 38.4 57.6 38.4 92.2s-13.6 67.4-38.4 92.2C840.8 826.4 808 840 773.4 840s-67.4-13.6-92.2-38.4c-24.8-24.8-38.4-57.6-38.4-92.2s13.6-67.4 38.4-92.2c24.6-24.8 57.4-38.6 92.2-38.6m0-56c-102.6 0-186.6 84-186.6 186.6s84 186.6 186.6 186.6 186.6-84 186.6-186.6-84-186.6-186.6-186.6z"  /><path d="M736 384h-96l-59-120.2c-11.2-18.6-31.8-31.8-54.2-31.8-16.8 0-33.6 7.4-44.8 18.6l-143.4 138.2c-11.2 11.2-18.6 28-18.6 44.8 0 34.8 25.2 47.2 37 54.2C448 540.2 480 546 480 572.2V704c0 17.6 14.4 32 32 32s32-14.4 32-32v-180c0-26.4-60.8-48-96.6-76l97.8-103c37.4 57 54.6 103 76 103H736c17.6 0 32-14.4 32-32s-14.4-32-32-32z"  /></svg>